<svg clip-rule="evenodd" fill-rule="evenodd" stroke-linejoin="round" stroke-miterlimit="2" viewBox="0 0 108 93" width="108" height="93" xmlns="http://www.w3.org/2000/svg"><g fill-rule="nonzero"><path d="m2.222 47.411c0-24.711 20.033-44.743 44.743-44.743 24.711 0 44.743 20.032 44.743 44.743s-20.032 44.743-44.743 44.743c-24.71 0-44.743-20.032-44.743-44.743z" fill="#fff"/><path d="m74.024 46.529c-.018-11.457-7.18-21.23-17.272-25.1v50.199c10.092-3.875 17.254-13.638 17.272-25.099zm-36.524 25.089v-50.184c-10.083 3.883-17.234 13.641-17.261 25.095.027 11.452 7.178 21.21 17.261 25.089zm9.631-67.518c-23.432.009-42.417 18.997-42.421 42.429.004 23.43 18.989 42.414 42.421 42.418 23.432-.004 42.42-18.988 42.426-42.418-.006-23.432-18.994-42.42-42.426-42.429zm-.105 88.851c-25.64.122-46.744-20.651-46.744-45.938 0-27.635 21.104-46.751 46.744-46.746h12.017c25.338-.005 48.463 19.102 48.463 46.746 0 25.279-23.125 45.938-48.463 45.938z" fill="#01528b"/></g></svg>
