<svg clip-rule="evenodd" fill-rule="evenodd" stroke-miterlimit="3.864" viewBox="0 0 254 305" width="254" height="305" xmlns="http://www.w3.org/2000/svg"><path d="m3.831 21.253c0-9.638 7.817-17.454 17.457-17.454h211.511c9.64 0 17.457 7.816 17.457 17.454v262.307c0 9.661-7.817 17.477-17.457 17.477h-211.511c-9.64 0-17.457-7.816-17.457-17.477v-262.307z" fill="#fff" fill-rule="nonzero" stroke="#007fc3" stroke-width="7.27"/><path d="m78.194 76.645v27.957h15.611v-36.411h-7.156c-4.581 0-8.455 3.737-8.455 8.454zm0 96.588c0 4.967 3.874 8.886 8.569 8.886h7.042v-28.482h48.724v67.217h-91.136c-12.056 0-20.83-9.797-20.83-21.828v-147.719c0-12.099 8.774-21.851 20.83-21.851h91.136v112.902h-64.335z" fill="#007fc3"/><path d="m34.871 259.202h4.535v-2.506c-.069-2.78-.593-3.737-2.393-3.737-2.188 0-2.142 2.507-2.142 5.104zm-4.444 6.699v-7.405c-.251-6.699 2.142-10.504 6.518-10.504 6.244 0 6.905 4.648 6.905 12.441v3.805h-8.979v4.124c.091 3.737 1.048 4.443 2.393 4.443 1.618 0 2.142-1.731 2.073-5.354h4.444c.183 6.334-1.618 10.322-6.176 10.322-5.173 0-7.292-3.555-7.178-11.872" fill="#007fc3"/><path d="m224.002 220.854h-89.404l-1.025-.114-.957-.136-1.049-.183-.957-.25-.911-.342-.958-.319-.911-.319c-2.94-1.322-4.832-2.666-7.156-4.899-2.006-2.119-3.624-4.625-4.695-7.36l-.319-.888-.273-1.048-.251-.957-.251-.957-.137-1.048-.136-.957-.046-1.094-.068-.957v-147.901c.137-5.742 2.074-10.869 6.062-15.016 1.96-2.096 4.375-3.782 7.019-4.899l.889-.41.911-.319.98-.251.889-.25 1.026-.205.98-.114.957-.137 1.025-.068h88.766v75.078h-46.65v-36.457c-7.202-1.139-14.996.502-15.429 8.955v-3.304l-.045 3.418.045-.114v96.087l-.045-.137.045.843v-.706c.456 8.476 8.204 10.139 15.543 8.932v-39.032l.205-.706h46.331z" fill="#f00"/><path d="m178.423 258.564h-4.444v-3.144c-.068-1.549-.638-2.461-1.55-2.461-1.709 0-1.709 2.894-1.709 6.312v6.722c-.16 5.536.365 6.562 1.709 6.812 1.368-.068 1.436-1.936 1.55-4.192v-2.62h4.444v2.62c0 5.924-1.664 9.16-6.108 9.16-3.942 0-6.176-3.031-5.993-10.573v-9.137c-.069-7.998 2.575-10.071 5.993-10.071 4.513 0 6.199 4.124 6.108 8.317z" fill="#f00" fill-rule="nonzero"/><path d="m135.054 220.854c-5.401-.227-10.597-2.734-14.38-6.562-2.006-2.119-3.624-4.625-4.695-7.36l-.319-.888-.273-1.048-.251-.957-.251-.957-.137-1.048-.136-.957-.046-1.094-.068-.957v-45.389h28.031v67.217zm-20.556-169.729c.547-15.426 13.172-23.629 28.031-21.669v112.902h-28.031z" fill="#292526"/><path d="m49.525 277.066v-37.71" fill="none" stroke="#292526" stroke-miterlimit="4" stroke-width="4.51"/><g fill="#292526"><path d="m59.438 259.202h4.444v-2.506c0-2.78-.501-3.737-2.302-3.737-2.279 0-2.142 2.507-2.142 5.104zm-4.444 6.699v-7.405c-.205-6.699 2.119-10.504 6.495-10.504 6.267 0 6.928 4.648 6.928 12.441v3.805h-8.979v4.124c.068 3.737 1.048 4.443 2.325 4.443 1.686 0 2.119-1.731 2.073-5.354h4.49c.205 6.334-1.595 10.322-6.176 10.322-5.151 0-7.224-3.555-7.156-11.872"/><path d="m83.094 258.564h-4.444v-3.144c-.069-1.549-.57-2.461-1.527-2.461-1.71 0-1.71 2.894-1.71 6.312v6.722c-.045 5.536.411 6.562 1.71 6.812 1.344-.068 1.39-1.936 1.527-4.192v-2.62h4.444v2.62c0 5.924-1.596 9.16-6.062 9.16-3.989 0-6.245-3.031-6.062-10.573v-9.137c-.046-7.998 2.643-10.071 6.062-10.071 4.535 0 6.13 4.124 6.062 8.317z" fill-rule="nonzero"/><path d="m92.187 272.031v5.149c-2.712.388-6.381.798-6.381-4.488v-19.231h-1.801v-4.74h1.732v-7.815h4.513v7.815h1.937v4.74h-1.937v17.681c.136 1.162 1.367.957 1.937.889" fill-rule="nonzero"/><path d="m98.317 248.721v5.013h.069c.569-2.073 1.093-3.213 1.732-3.987 1.23-1.55 2.119-1.481 2.825-1.55v7.793c-2.506-.387-4.375.524-4.444 4.717v16.36h-4.512v-28.346z" fill-rule="nonzero"/><path d="m110.943 277.773c-5.857.205-6.906-4.056-6.837-13.854 0-9.729.068-15.927 6.837-15.927 6.631 0 6.723 6.198 6.723 15.927.045 9.798-.912 14.059-6.723 13.854zm-2.393-19.391v9.411c0 3.463.273 5.012 2.393 5.012 2.073 0 2.256-1.549 2.256-5.012v-9.411c0-2.643 0-5.423-2.256-5.423-2.393 0-2.393 2.78-2.393 5.423"/><path d="m124.936 248.721v2.894h.068c1.025-3.304 3.031-3.623 4.056-3.623 2.507 0 4.581 2.119 4.444 7.155v21.92h-4.444v-18.89c0-2.757-.25-4.557-1.937-4.716-1.663-.046-2.256 2.278-2.187 5.24v18.366h-4.444v-28.346z" fill-rule="nonzero"/><path d="m141.504 245.28h-4.513v-5.924h4.513zm0 31.786h-4.513v-28.368h4.513z"/><path d="m156.773 258.564h-4.49v-3.144c-.091-1.549-.592-2.461-1.504-2.461-1.732 0-1.732 2.894-1.686 6.312v6.722c-.114 5.536.341 6.562 1.686 6.812 1.367-.068 1.367-1.936 1.504-4.192v-2.62h4.49v2.62c0 5.924-1.687 9.16-6.131 9.16-3.92 0-6.244-3.031-6.062-10.573v-9.137c0-7.998 2.667-10.071 6.062-10.071 4.513 0 6.131 4.124 6.131 8.317z" fill-rule="nonzero"/><path d="m189.066 265.149v-3.03c-1.094 1.094-2.439 2.233-3.669 3.6-.593.843-.707 2.256-.707 3.418 0 2.187.524 3.668 2.12 3.668 2.598 0 2.187-4.898 2.256-7.656zm4.831 11.917h-4.239c-.25-.911-.25-1.868-.25-2.893-1.094 2.301-2.462 3.6-4.011 3.6-3.601 0-5.151-2.575-5.151-8.499 0-6.38 3.1-7.998 6.632-10.117 1.869-1.094 2.53-2.461 2.188-4.717-.182-1.276-.889-1.481-2.051-1.481-2.051 0-2.393 1.55-2.393 4.124h-4.262c0-5.354 1.162-9.091 6.769-9.091 6.13 0 6.449 4.58 6.449 8.362v16.77c0 1.299.069 2.575.319 3.942"/><path d="m195.834 267.724h4.444c-.319 5.218 1.094 5.082 2.074 5.082 1.345 0 2.188-1.413 1.869-3.213-.069-1.618-1.345-2.529-2.188-3.35l-2.393-2.46c-2.256-2.256-3.737-4.899-3.737-8.955 0-4.375 2.392-6.836 6.631-6.836 4.399 0 6.404 3.281 6.268 9.342h-4.467c.091-3.144-.502-4.375-2.097-4.375-1.048 0-1.891.707-1.891 2.325 0 1.663.843 2.438 1.686 3.281l3.737 3.6c1.094.98 2.826 3.691 2.963 5.559.456 4.968-.387 10.049-6.654 10.049-2.302 0-6.746-1.413-6.245-10.049" fill-rule="nonzero"/><path d="m215.639 277.066h-4.513v-37.71h4.513v12.259h.045c1.231-3.35 3.1-3.623 4.011-3.623 2.575 0 4.649 2.119 4.513 7.154v21.92h-4.513v-19.413c0-2.757-.182-4.557-1.869-4.694-1.686-.068-2.256 2.187-2.187 5.286z" fill-rule="nonzero"/></g></svg>
