<svg clip-rule="evenodd" fill-rule="evenodd" stroke-linejoin="round" stroke-miterlimit="2" viewBox="0 0 284 123" width="284" height="123" xmlns="http://www.w3.org/2000/svg"><g fill-rule="nonzero"><path d="m255.105.648h-233.349c-11.654.002-21.096 9.436-21.101 21.082v80.137c.005 11.645 9.447 21.08 21.101 21.083h233.349v-122.302z" fill="#fff"/><path d="m147.064 9.509h-125.927c-6.683.012-12.09 5.416-12.103 12.092v80.28c.013 6.675 5.42 12.079 12.103 12.092h125.927z" fill="#fff"/><path d="m9.034 101.881v-80.28c.013-6.676 5.42-12.08 12.103-12.092h125.927v104.464h-125.927c-6.683-.013-12.09-5.417-12.103-12.092zm253.108-101.4h-241.005c-11.675.002-21.133 9.452-21.137 21.12v80.28c.004 11.665 9.462 21.115 21.137 21.119h241.005c11.675-.004 21.134-9.454 21.138-21.119v-80.28c-.004-11.668-9.463-21.118-21.138-21.12z" fill="#003a7d"/><path d="m157.1 88.749h10.572v-16.609h.118c1.998 3.64 5.993 4.987 9.693 4.987 9.105 0 13.98-7.512 13.98-16.553 0-7.394-4.637-15.436-13.097-15.436-4.817 0-9.283 1.938-11.397 6.222h-.118v-5.518h-9.751zm23.439-27.938c0 4.872-2.409 8.217-6.401 8.217-3.526 0-6.466-3.345-6.466-7.807 0-4.578 2.587-7.983 6.466-7.983 4.11 0 6.401 3.52 6.401 7.573z" fill="#fff"/><path d="m227.227 76.421c-.469-2.406-.589-4.81-.589-7.218v-11.387c0-9.333-6.754-12.678-14.567-12.678-4.525 0-8.46.644-12.219 2.173l.174 7.16c2.94-1.643 6.346-2.29 9.751-2.29 3.82 0 6.935 1.115 6.993 5.284-1.351-.237-3.229-.415-4.933-.415-5.64 0-15.802 1.119-15.802 10.451 0 6.635 5.404 9.628 11.455 9.628 4.347 0 7.284-1.705 9.691-5.518h.115c0 1.585.18 3.172.237 4.81zm-21.325-9.681c0-2.936 2.819-4.051 6.403-4.051 1.587 0 3.114.117 4.465.176 0 3.579-2.524 7.222-6.522 7.222-2.466 0-4.346-1.238-4.346-3.347z" fill="#fff"/><path d="m231.976 88.749c2.175.471 4.347.707 6.58.707 9.695 0 11.984-7.458 14.978-15.142l11.222-28.472h-10.574l-6.287 19.956h-.117l-6.58-19.956h-11.392l12.389 31.285c-.759 2.701-2.757 4.227-5.338 4.227-1.473 0-2.766-.173-4.173-.647z" fill="#fff"/><g fill="#ed1c24"><path d="m57.912 45.842h-9.577v5.516h-.115c-2.232-3.755-5.875-6.22-10.398-6.22-9.514 0-13.803 6.808-13.803 15.907 0 9.042 5.227 15.376 13.628 15.376 4.23 0 7.754-1.638 10.278-5.223h.118v1.646c0 5.988-3.288 8.863-9.398 8.863-4.406 0-7.107-.939-10.337-2.524l-.53 8.336c2.468.877 6.639 1.937 11.69 1.937 12.335 0 18.444-4.052 18.444-16.612zm-22.967 15.025c0-4.165 2.056-7.629 5.992-7.629 4.757 0 6.755 3.812 6.755 7.218 0 4.699-2.997 7.868-6.755 7.868-3.172 0-5.992-2.703-5.992-7.457z"/><path d="m65.208 76.421h10.573v-30.579h-10.573zm10.573-43.317h-10.573v7.748h10.573z"/><path d="m105.223 45.488c-1.058-.174-2.35-.35-3.582-.35-4.583 0-7.227 2.465-9.048 6.338h-.117v-5.634h-9.634v30.579h10.574v-12.91c0-5.989 2.762-9.569 7.696-9.569 1.232 0 2.408 0 3.581.35z"/><path d="m123.429 77.127c10.101 0 17.797-5.868 17.797-15.963 0-10.158-7.696-16.026-17.797-16.026-10.103 0-17.799 5.868-17.799 16.026 0 10.095 7.696 15.963 17.799 15.963zm0-7.395c-4.876 0-6.873-4.049-6.873-8.568 0-4.58 1.997-8.63 6.873-8.63 4.875 0 6.873 4.05 6.873 8.63 0 4.519-1.998 8.568-6.873 8.568z"/></g></g></svg>
