<svg clip-rule="evenodd" fill-rule="evenodd" stroke-linejoin="round" stroke-miterlimit="2" viewBox="0 0 200 124" xmlns="http://www.w3.org/2000/svg"><g fill-rule="nonzero"><path d="m198.191 100.128v-2.397h-.625l-.723 1.646-.719-1.646h-.629v2.397h.445v-1.808l.675 1.56h.46l.676-1.564v1.812zm-3.965 0v-1.989h.802v-.404h-2.044v.404h.802v1.989z" fill="#0099df"/><path d="m73.066 13.251h54.078v97.187h-54.078z" fill="#6c6bbd"/><path d="m76.53 61.837c0-19.715 9.231-37.276 23.605-48.593-10.511-8.276-23.778-13.216-38.196-13.216-34.132 0-61.801 27.673-61.801 61.809 0 34.137 27.669 61.809 61.801 61.809 14.418 0 27.685-4.939 38.196-13.215-14.374-11.317-23.605-28.879-23.605-48.594" fill="#eb001b"/><path d="m200.077 61.837c0 34.137-27.668 61.809-61.801 61.809-14.418 0-27.684-4.939-38.2-13.215 14.379-11.317 23.61-28.879 23.61-48.594s-9.231-37.276-23.61-48.593c10.516-8.276 23.782-13.216 38.2-13.216 34.133 0 61.801 27.673 61.801 61.809" fill="#0099df"/></g></svg>