<svg clip-rule="evenodd" fill-rule="evenodd" stroke-linejoin="round" stroke-miterlimit="2" viewBox="0 0 117 73" width="117" height="73" xmlns="http://www.w3.org/2000/svg"><path d="m-7-7h131.39v86.9h-131.39z" fill="none"/><g fill-rule="nonzero"><path d="m41.37 8.14h34.66v56.61h-34.66z" fill="#ff5f00"/><path d="m44.94 36.45c-.009-11.037 5.068-21.485 13.75-28.3-6.342-4.984-14.179-7.695-22.245-7.695-19.749 0-36 16.251-36 36s16.251 36 36 36c8.066 0 15.903-2.711 22.245-7.695-8.685-6.817-13.762-17.269-13.75-28.31z" fill="#eb001b"/><path d="m113.5 58.76v-1.16h.5v-.24h-1.19v.24h.47v1.16zm2.31 0v-1.4h-.36l-.42 1-.42-1h-.36v1.4h.26v-1.06l.39.91h.27l.39-.91v1.06z" fill="#f79e1b"/><path d="m116.94 36.45c0 19.749-16.251 35.999-36 35.999-8.068 0-15.907-2.712-22.25-7.699 8.679-6.821 13.755-17.267 13.755-28.305s-5.076-21.484-13.755-28.305c6.343-4.987 14.182-7.699 22.25-7.699 19.749 0 36 16.25 36 35.999z" fill="#f79e1b"/></g></svg>
