<svg clip-rule="evenodd" fill-rule="evenodd" stroke-linejoin="round" stroke-miterlimit="2" viewBox="0 0 89 25" width="89" height="25" xmlns="http://www.w3.org/2000/svg"><g fill-rule="nonzero"><path d="m11.211.749h-6.839c-.466 0-.866.342-.939.802l-2.766 17.537c-.005.029-.007.059-.007.088 0 .313.257.57.57.57h3.266c.466 0 .867-.343.939-.803l.746-4.73c.072-.46.472-.803.938-.803h2.165c4.505 0 7.105-2.18 7.784-6.5.306-1.89.013-3.375-.872-4.415-.972-1.142-2.696-1.746-4.985-1.746zm.789 6.405c-.374 2.454-2.249 2.454-4.062 2.454h-1.032l.724-4.583c.044-.276.284-.481.563-.481h.473c1.235 0 2.4 0 3.002.704.359.42.469 1.044.332 1.906zm19.654-.079h-3.275c-.279 0-.519.205-.563.481l-.145.916-.229-.332c-.709-1.029-2.29-1.373-3.868-1.373-3.619 0-6.71 2.741-7.312 6.586-.313 1.918.132 3.752 1.22 5.031.998 1.176 2.426 1.666 4.125 1.666 2.916 0 4.533-1.875 4.533-1.875l-.146.91c-.005.03-.007.06-.007.09 0 .312.257.57.569.57h2.95c.466 0 .867-.343.939-.803l1.77-11.209c.005-.03.007-.06.007-.09 0-.312-.256-.568-.568-.568zm-4.565 6.374c-.316 1.871-1.801 3.127-3.695 3.127-.951 0-1.711-.305-2.199-.883-.484-.574-.668-1.391-.514-2.301.295-1.855 1.805-3.152 3.67-3.152.93 0 1.686.309 2.184.892.499.589.697 1.411.554 2.317zm22.007-6.374h-3.291c-.315 0-.61.157-.787.417l-4.539 6.686-1.924-6.425c-.121-.401-.493-.678-.912-.678h-3.234-.002c-.312 0-.57.257-.57.57 0 .063.011.125.031.184l3.625 10.638-3.408 4.811c-.068.096-.105.212-.105.33 0 .313.257.57.57.57h3.287c.311 0 .604-.152.781-.408l10.946-15.8c.066-.095.102-.209.102-.325 0-.313-.257-.57-.57-.57z" fill="#253b80"/><path d="m59.992.749h-6.84c-.465 0-.866.342-.938.802l-2.766 17.537c-.005.029-.007.059-.007.089 0 .312.257.569.569.569h3.51c.326 0 .606-.24.656-.562l.785-4.971c.072-.46.472-.803.938-.803h2.164c4.506 0 7.105-2.18 7.785-6.5.307-1.89.012-3.375-.873-4.415-.971-1.142-2.694-1.746-4.983-1.746zm.789 6.405c-.373 2.454-2.248 2.454-4.062 2.454h-1.031l.725-4.583c.043-.276.283-.481.562-.481h.473c1.234 0 2.4 0 3.002.704.359.42.468 1.044.331 1.906zm19.653-.079h-3.273c-.279-.001-.52.205-.562.481l-.145.916-.23-.332c-.709-1.029-2.289-1.373-3.867-1.373-3.619 0-6.709 2.741-7.311 6.586-.312 1.918.131 3.752 1.219 5.031 1 1.176 2.426 1.666 4.125 1.666 2.916 0 4.533-1.875 4.533-1.875l-.146.91c-.005.03-.007.06-.007.09 0 .313.257.57.57.57h2.95c.466 0 .866-.343.938-.803l1.771-11.209c.004-.029.007-.058.007-.087 0-.313-.258-.571-.571-.571zm-4.565 6.374c-.314 1.871-1.801 3.127-3.695 3.127-.949 0-1.711-.305-2.199-.883-.484-.574-.666-1.391-.514-2.301.297-1.855 1.805-3.152 3.67-3.152.93 0 1.686.309 2.184.892.501.589.699 1.411.554 2.317zm8.426-12.219-2.807 17.858c-.005.029-.007.059-.007.089 0 .312.257.569.569.569h2.822c.469 0 .867-.34.939-.803l2.768-17.536c.005-.029.007-.059.007-.089 0-.312-.257-.569-.569-.57h-3.16c-.279.001-.519.206-.562.482z" fill="#179bd7"/></g></svg>
