<svg clip-rule="evenodd" fill-rule="evenodd" stroke-miterlimit="10" viewBox="0 0 167 167" xmlns="http://www.w3.org/2000/svg"><path d="m81.25 18.75c-16.667 0-29.167 16.667-29.167 16.667-2.853 6.569-4.273 13.672-4.166 20.833v47.083c.029 2.014-.398 4.009-1.25 5.834l-8.334 16.666c-.137.419-.207.857-.207 1.298 0 2.05 1.514 3.811 3.541 4.119h82.083c2.179-.142 3.897-1.974 3.897-4.158 0-.735-.195-1.457-.564-2.092l-10.416-15.417c-1.425-2.237-2.151-4.848-2.084-7.5v-45.833c-.042-7.147-1.457-14.22-4.166-20.833-1.667-4.167-16.667-16.667-29.167-16.667z" fill="none" stroke="#059" class="pricealert-color-toggle-stroke" stroke-width="8.33"/><path d="m97.917 131.25c0 9.143-7.524 16.667-16.667 16.667s-16.667-7.524-16.667-16.667" fill="#059" class="pricealert-color-toggle-fill" fill-rule="nonzero"/></svg>
