<?xml version="1.0" encoding="UTF-8" standalone="no"?><!DOCTYPE svg PUBLIC "-//W3C//DTD SVG 1.1//EN" "http://www.w3.org/Graphics/SVG/1.1/DTD/svg11.dtd"><svg width="68" height="46" viewBox="0 0 68 46" version="1.1" xmlns="http://www.w3.org/2000/svg" xmlns:xlink="http://www.w3.org/1999/xlink" xml:space="preserve" xmlns:serif="http://www.serif.com/" style="fill-rule:evenodd;clip-rule:evenodd;stroke-linejoin:round;stroke-miterlimit:2;"><g id="sofort"><g id="Clipped"><rect id="Rectangle-path" x="0" y="0" width="67.853" height="45.235" style="fill:#fa82a0;"/></g><path id="Shape" d="M9.402,30.364c2.77,0 4.889,-1.854 4.889,-4.583c0,-2.526 -1.793,-3.626 -3.993,-4.278c-1.405,-0.408 -2.281,-0.713 -2.281,-1.711c0,-0.836 0.611,-1.488 1.568,-1.488c0.815,0 1.426,0.469 1.854,1.182l2.302,-1.446c-0.713,-1.589 -2.322,-2.404 -4.074,-2.404c-2.771,0 -4.523,1.996 -4.523,4.298c0,1.834 1.1,3.26 3.83,4.054c1.487,0.428 2.424,0.713 2.424,1.895c0,1.1 -0.794,1.792 -1.955,1.792c-1.243,0 -2.18,-0.794 -2.751,-1.528l-1.914,1.936c1.018,1.385 2.689,2.281 4.624,2.281Zm11.197,0c-2.933,0 -5.317,-2.343 -5.317,-5.194c0,-2.852 2.384,-5.195 5.317,-5.195c2.934,0 5.317,2.343 5.317,5.195c0,2.851 -2.383,5.194 -5.317,5.194Zm0,-2.607c1.426,0 2.547,-1.121 2.547,-2.587c0,-1.467 -1.121,-2.588 -2.547,-2.588c-1.426,0 -2.546,1.121 -2.546,2.588c0,1.466 1.12,2.587 2.546,2.587Zm12.175,-9.31l0,-2.607l-0.407,0c-3.382,0 -5.032,2.24 -5.032,4.889l0,9.37l2.771,0l0,-4.115c0,-1.364 1.059,-2.342 2.587,-2.383l0,-2.648c-1.1,0 -1.976,0.326 -2.587,0.978l0,-1.06c0,-1.711 1.12,-2.485 2.668,-2.424Zm6.044,11.917c-2.934,0 -5.317,-2.343 -5.317,-5.194c0,-2.852 2.383,-5.195 5.317,-5.195c2.933,0 5.317,2.343 5.317,5.195c0,2.851 -2.384,5.194 -5.317,5.194Zm0,-2.607c1.426,0 2.546,-1.121 2.546,-2.587c0,-1.467 -1.12,-2.588 -2.546,-2.588c-1.426,0 -2.547,1.121 -2.547,2.588c0,1.466 1.121,2.587 2.547,2.587Zm9.506,-6.397l0,-1.12l-2.689,0l0,9.859l2.771,0l0,-4.502c0,-1.629 0.957,-2.546 2.628,-2.546l0,-2.974c-1.263,-0.041 -2.16,0.387 -2.71,1.283Zm7.062,3.708l0,-2.404c0.611,0.652 1.487,0.978 2.587,0.978l0,-2.649c-1.507,-0.04 -2.587,-1.038 -2.587,-2.383l0,-1.548l-2.77,0l0,8.148c0,2.649 1.65,4.889 5.032,4.889l0.407,0l0,-2.607c-1.548,0.061 -2.669,-0.713 -2.669,-2.424Zm5.983,5.194c1.018,0 1.853,-0.835 1.853,-1.853c0,-1.019 -0.835,-1.854 -1.853,-1.854c-1.019,0 -1.854,0.835 -1.854,1.854c0,1.018 0.835,1.853 1.854,1.853Z" style="fill:#fff;fill-rule:nonzero;"/></g></svg>
