<svg clip-rule="evenodd" fill-rule="evenodd" stroke-linejoin="round" stroke-miterlimit="2" viewBox="0 0 101 49" width="101" height="49" xmlns="http://www.w3.org/2000/svg" xmlns:xlink="http://www.w3.org/1999/xlink"><linearGradient id="a" gradientUnits="userSpaceOnUse" x1="0" x2="101" y1="16.5571" y2="16.5571"><stop offset="0" stop-color="#231e5d"/><stop offset="1" stop-color="#074ea2"/></linearGradient><path d="m50.009.696-6.749 31.807h-8.163l6.752-31.807h8.16zm34.336 20.537 4.296-11.943 2.473 11.943zm9.107 11.27h7.548l-6.589-31.807h-6.966c-1.566 0-2.887.918-3.474 2.332l-12.246 29.475h8.568l1.703-4.752h10.469zm-21.302-10.385c.036-8.394-11.514-8.858-11.434-12.608.025-1.141 1.103-2.353 3.462-2.664 1.167-.154 4.392-.273 8.045 1.422l1.435-6.743c-1.966-.72-4.491-1.411-7.636-1.411-8.066 0-13.745 4.324-13.79 10.514-.054 4.581 4.052 7.134 7.146 8.657 3.178 1.558 4.244 2.559 4.232 3.952-.023 2.135-2.536 3.076-4.885 3.113-4.103.065-6.484-1.118-8.382-2.009l-1.477 6.97c1.905.882 5.425 1.651 9.075 1.689 8.575 0 14.182-4.268 14.209-10.882zm-33.804-21.422-13.222 31.807h-8.627l-6.507-25.384c-.395-1.563-.738-2.137-1.939-2.794-1.962-1.074-5.201-2.081-8.051-2.707l.192-.922h13.888c1.769 0 3.361 1.186 3.763 3.242l3.437 18.407 8.494-21.649h8.572z" fill="url(#a)"/><g fill-rule="nonzero"><path d="m52.781 48.279 2.39-11.453h3.454c.828 0 1.461.06 1.898.179.625.162 1.159.45 1.602.864.442.414.776.931 1 1.55.224.62.336 1.316.336 2.086 0 .922-.14 1.762-.418 2.52-.279.758-.644 1.424-1.094 2-.451.575-.922 1.026-1.414 1.351-.492.326-1.074.567-1.746.723-.511.12-1.138.18-1.883.18zm1.805-1.297h1.812c.818 0 1.544-.076 2.18-.227.396-.093.734-.231 1.015-.414.37-.234.706-.544 1.008-.929.396-.511.712-1.093.949-1.746.237-.654.356-1.398.356-2.231 0-.927-.162-1.639-.485-2.137-.322-.497-.734-.827-1.234-.988-.37-.12-.945-.18-1.726-.18h-2.024z"/><path d="m64.343 48.279 2.399-11.453h8.265l-.273 1.304h-6.734l-.75 3.563h6.562l-.273 1.305h-6.563l-.828 3.984h7.211l-.273 1.297z"/><path d="m74.992 48.279 2.398-11.453h3.547c.646 0 1.125.026 1.438.078.51.088.941.243 1.293.465.351.221.623.523.816.906s.289.806.289 1.269c0 .631-.173 1.185-.52 1.664-.346.48-.876.844-1.589 1.094.619.203 1.083.509 1.39.918.308.409.461.887.461 1.434 0 .63-.181 1.234-.543 1.812s-.841 1.025-1.437 1.34c-.597.315-1.262.473-1.996.473zm2.906-6.563h2.32c1.11 0 1.908-.177 2.395-.531s.73-.87.73-1.547c0-.323-.075-.601-.226-.836-.151-.234-.353-.405-.606-.511-.252-.107-.728-.161-1.425-.161h-2.438zm-1.102 5.266h2.61c.693 0 1.159-.024 1.398-.07.485-.084.878-.226 1.18-.426.302-.201.539-.465.711-.793s.258-.672.258-1.031c0-.537-.168-.944-.504-1.223s-.975-.418-1.918-.418h-2.906z"/><path d="m85.882 48.279 2.399-11.453h1.523l-2.39 11.453z"/><path d="m93.046 48.279 2.118-10.149h-3.758l.273-1.304h9.016l-.274 1.304h-3.726l-2.117 10.149z"/></g></svg>
