<svg clip-rule="evenodd" fill-rule="evenodd" stroke-linejoin="round" stroke-miterlimit="2" viewBox="0 0 101 33" width="101" height="33" xmlns="http://www.w3.org/2000/svg" xmlns:xlink="http://www.w3.org/1999/xlink"><linearGradient id="a" gradientUnits="userSpaceOnUse" x1="0" x2="101" y1="16.5571" y2="16.5571"><stop offset="0" stop-color="#231e5d"/><stop offset="1" stop-color="#074ea2"/></linearGradient><path d="m50.009.696-6.749 31.807h-8.163l6.752-31.807h8.16zm34.336 20.537 4.296-11.943 2.473 11.943zm9.107 11.27h7.548l-6.589-31.807h-6.966c-1.566 0-2.887.918-3.474 2.332l-12.246 29.475h8.568l1.703-4.752h10.469zm-21.302-10.385c.036-8.394-11.514-8.858-11.434-12.608.025-1.141 1.103-2.353 3.462-2.664 1.167-.154 4.392-.273 8.045 1.422l1.435-6.743c-1.966-.72-4.491-1.411-7.636-1.411-8.066 0-13.745 4.324-13.79 10.514-.054 4.581 4.052 7.134 7.146 8.657 3.178 1.558 4.244 2.559 4.232 3.952-.023 2.135-2.536 3.076-4.885 3.113-4.103.065-6.484-1.118-8.382-2.009l-1.477 6.97c1.905.882 5.425 1.651 9.075 1.689 8.575 0 14.182-4.268 14.209-10.882zm-33.804-21.422-13.222 31.807h-8.627l-6.507-25.384c-.395-1.563-.738-2.137-1.939-2.794-1.962-1.074-5.201-2.081-8.051-2.707l.192-.922h13.888c1.769 0 3.361 1.186 3.763 3.242l3.437 18.407 8.494-21.649h8.572z" fill="url(#a)"/></svg>
