<svg clip-rule="evenodd" fill-rule="evenodd" stroke-linejoin="round" stroke-miterlimit="2" viewBox="0 0 101 49" width="101" height="49" xmlns="http://www.w3.org/2000/svg" xmlns:xlink="http://www.w3.org/1999/xlink"><linearGradient id="a" gradientUnits="userSpaceOnUse" x1="0" x2="101" y1="16.5571" y2="16.5571"><stop offset="0" stop-color="#231e5d"/><stop offset="1" stop-color="#074ea2"/></linearGradient><path d="m50.009.696-6.749 31.807h-8.163l6.752-31.807zm34.336 20.537 4.296-11.943 2.473 11.943zm9.107 11.27h7.548l-6.589-31.807h-6.966c-1.566 0-2.887.918-3.474 2.332l-12.246 29.475h8.568l1.703-4.752h10.469zm-21.302-10.385c.036-8.394-11.514-8.858-11.434-12.608.025-1.141 1.103-2.353 3.462-2.664 1.167-.154 4.392-.273 8.045 1.422l1.435-6.743c-1.966-.72-4.491-1.411-7.636-1.411-8.066 0-13.745 4.324-13.79 10.514-.054 4.581 4.052 7.134 7.146 8.657 3.178 1.558 4.244 2.559 4.232 3.952-.023 2.135-2.536 3.076-4.885 3.113-4.103.065-6.484-1.118-8.382-2.009l-1.477 6.97c1.905.882 5.425 1.651 9.075 1.689 8.575 0 14.182-4.268 14.209-10.882zm-33.804-21.422-13.222 31.807h-8.627l-6.507-25.384c-.395-1.563-.738-2.137-1.939-2.794-1.962-1.074-5.201-2.081-8.051-2.707l.192-.922h13.888c1.769 0 3.361 1.186 3.763 3.242l3.437 18.407 8.494-21.649z" fill="url(#a)"/><g fill-rule="nonzero"><path d="m.045 0 .15-.716h.516l-.017.082h-.421l-.046.222h.41l-.017.082h-.411l-.051.249h.45l-.017.081z" transform="matrix(16 0 0 16 13.0312 48.5695)"/><path d="m.04 0 .149-.716h.096l-.132.635h.371l-.017.081z" transform="matrix(16 0 0 16 23.7031 48.5695)"/><path d="m.045 0 .15-.716h.516l-.017.082h-.421l-.046.222h.41l-.017.082h-.411l-.051.249h.45l-.017.081z" transform="matrix(16 0 0 16 32.6015 48.5695)"/><path d="m.603-.252.095.013c-.03.083-.074.145-.131.188-.057.042-.122.063-.193.063-.087 0-.156-.026-.207-.079s-.076-.129-.076-.228c0-.129.039-.236.116-.32.069-.075.155-.113.257-.113.076 0 .138.02.185.061s.074.095.081.164l-.089.008c-.009-.051-.029-.09-.058-.116-.03-.025-.068-.038-.114-.038-.088 0-.159.039-.213.117-.047.067-.07.146-.07.239 0 .073.018.129.054.168s.083.058.141.058c.05 0 .095-.016.135-.048s.069-.078.087-.137z" transform="matrix(16 0 0 16 43.2734 48.5695)"/><path d="m.227 0 .132-.634h-.234l.017-.082h.563l-.017.082h-.233l-.132.634z" transform="matrix(16 0 0 16 54.8281 48.5695)"/><path d="m.047 0 .15-.716h.3c.059 0 .104.005.135.015.03.01.054.029.072.056.017.027.026.062.026.103 0 .059-.019.107-.057.146-.038.038-.1.063-.185.074.026.019.046.038.059.057.03.042.054.085.073.13l.054.135h-.107l-.051-.133c-.018-.048-.04-.09-.063-.125-.017-.025-.033-.041-.05-.048-.017-.008-.045-.012-.083-.012h-.111l-.066.318zm.178-.396h.132c.062 0 .101 0 .12-.002.036-.004.066-.012.089-.024.023-.013.041-.03.054-.052.012-.021.019-.044.019-.069 0-.021-.005-.039-.014-.054-.01-.016-.022-.026-.038-.032-.015-.005-.041-.008-.078-.008h-.233z" transform="matrix(16 0 0 16 64.6015 48.5695)"/><path d="m.091-.3c0-.127.037-.231.111-.31s.163-.118.268-.118c.089 0 .162.029.218.087s.084.136.084.234c0 .069-.014.134-.042.194-.021.044-.048.083-.08.115s-.067.057-.104.075c-.048.023-.1.035-.155.035-.057 0-.109-.013-.156-.041-.047-.027-.083-.065-.107-.114-.025-.049-.037-.101-.037-.157zm.095.005c0 .042.008.081.026.116.017.035.043.062.078.082.034.02.07.03.108.03.037 0 .072-.009.105-.026.034-.017.063-.042.09-.073.026-.031.046-.069.062-.115.015-.045.022-.09.022-.134 0-.071-.02-.128-.06-.17-.039-.042-.089-.063-.147-.063-.075 0-.141.032-.199.096-.057.063-.085.149-.085.257z" transform="matrix(16 0 0 16 76.1562 48.5695)"/><path d="m.049 0 .15-.716h.093l.12.269c.037.082.066.151.088.207.012.032.026.076.042.132.009-.061.02-.123.034-.187l.088-.421h.093l-.15.716h-.094l-.178-.414c-.032-.072-.056-.137-.074-.192-.005.046-.014.103-.028.171l-.091.435z" transform="matrix(16 0 0 16 88.602 48.5695)"/></g></svg>
