<svg clip-rule="evenodd" fill-rule="evenodd" height="325" stroke-linejoin="round" stroke-miterlimit="2" viewBox="0 0 300 325" width="300" xmlns="http://www.w3.org/2000/svg"><g fill-rule="nonzero"><path d="m1 1h298v322.844h-298z" fill="#1c3378"/><path d="m8.458 8.458h283.085v202.2h-283.085z" fill="#fff"/><path d="m221.606 45.16-55.542 132.589h-36.291l-27.337-105.837c-1.647-6.504-3.1-8.888-8.129-11.663-8.282-4.444-21.896-8.65-33.863-11.273l.802-3.816h58.36c7.436 0 14.135 4.943 15.826 13.485l14.46 76.722 35.683-90.207z" fill="#1c3378"/><g fill="#fff"><path d="m87.348 262.471c1.322.368 3.078.477 5.268.477 8.064 0 12.985-4.141 12.985-11.36 0-6.851-4.552-10.515-12.032-10.515-2.948 0-5.072.282-6.221.564zm-10.688-28.703c3.859-.737 9.213-1.279 16.498-1.279 7.891 0 13.657 1.734 17.429 5.029 3.513 3.014 5.789 7.848 5.789 13.636 0 5.832-1.756 10.666-5.095 13.983-4.292 4.466-11.034 6.569-18.665 6.569-1.995 0-3.859-.108-5.268-.368v23.24h-10.688z"/><path d="m156.959 268.606-4.639-15.175c-1.149-3.751-2.103-7.957-2.992-11.534h-.174c-.867 3.577-1.756 7.892-2.796 11.534l-4.553 15.175zm-16.91 8.498-5.094 17.473h-11.122l18.926-61.633h13.766l19.208 61.633h-11.577l-5.354-17.473z"/><path d="m198.431 294.577v-25.711l-18.666-35.922h12.249l7.111 15.804c2.016 4.596 3.49 8.043 5.094 12.27h.152c1.496-3.945 3.187-7.782 5.181-12.27l7.111-15.804h12.183l-19.641 35.662v25.971z"/></g></g></svg>